<svg width="248" height="91" viewBox="0 0 248 91" fill="none" xmlns="http://www.w3.org/2000/svg">
<g filter="url(#filter0_d_25_368)">
<path d="M133.676 69.0932C130.945 66.7435 128.31 64.2349 125.77 61.5676C123.293 58.8368 120.975 56.0425 118.816 53.1847C116.72 50.3269 114.783 47.4373 113.005 44.516C111.29 41.5311 109.829 38.6098 108.623 35.752C106.463 38.1018 104.304 40.4833 102.145 42.8965C100.049 45.2463 98.1758 47.6278 96.5246 50.0411C94.8734 52.3909 93.5397 54.7724 92.5236 57.1856C91.444 59.5354 90.9042 61.8852 90.9042 64.2349C90.9042 67.0292 91.3805 69.4425 92.3331 71.4747C93.2222 73.4435 94.4288 75.0629 95.953 76.333C97.4772 77.6032 99.2236 78.524 101.192 79.0956C103.161 79.6672 105.193 79.9529 107.289 79.9529C111.481 79.9529 115.926 78.9686 120.626 76.9999C125.325 75.0311 129.675 72.3956 133.676 69.0932ZM121.864 12.6036C121.864 10.3809 121.356 8.79321 120.34 7.84061C119.387 6.8245 118.339 6.31644 117.196 6.31644C116.244 6.31644 115.227 6.63397 114.148 7.26905C113.132 7.90412 112.179 8.82497 111.29 10.0316C110.464 11.1747 109.766 12.5719 109.194 14.2231C108.623 15.8743 108.337 17.6842 108.337 19.6529C108.337 23.2728 109.004 27.115 110.337 31.1795C111.925 29.5283 113.417 27.9089 114.815 26.3212C116.212 24.7335 117.418 23.1776 118.435 21.6534C119.514 20.0657 120.34 18.5416 120.911 17.0809C121.546 15.5567 121.864 14.0643 121.864 12.6036ZM158.539 82.1439C158.539 82.3345 158.412 82.525 158.158 82.7155C157.904 82.906 157.523 83.0013 157.015 83.0013C153.205 81.7947 149.458 80.1117 145.774 77.9525C142.091 75.7297 138.503 73.1577 135.01 70.2364C132.597 72.0781 130.088 73.761 127.484 75.2852C124.881 76.8093 122.213 78.1112 119.482 79.1909C116.815 80.2705 114.116 81.0961 111.385 81.6676C108.718 82.2392 106.146 82.525 103.669 82.525C101.256 82.525 98.9696 82.1757 96.8104 81.4771C94.6511 80.842 92.7777 79.8577 91.19 78.524C89.6023 77.1269 88.3639 75.4122 87.4748 73.38C86.5222 71.3477 86.0459 68.9662 86.0459 66.2354C86.0459 63.3141 86.7127 60.4563 88.0464 57.6619C89.38 54.8041 91.0947 52.0098 93.1905 49.279C95.2862 46.5482 97.6042 43.8809 100.144 41.2771C102.748 38.6733 105.289 36.133 107.765 33.6563C105.924 28.7027 105.003 24.2254 105.003 20.2245C105.003 17.8747 105.416 15.7155 106.241 13.7468C107.13 11.778 108.242 10.0951 109.575 8.69795C110.909 7.3008 112.37 6.22118 113.957 5.45909C115.608 4.6335 117.164 4.2207 118.625 4.2207C120.34 4.2207 121.896 4.79227 123.293 5.9354C124.69 7.01501 125.389 8.82497 125.389 11.3653C125.389 12.9529 124.976 14.6041 124.15 16.3188C123.388 18.0335 122.34 19.8117 121.007 21.6534C119.736 23.4316 118.212 25.3051 116.434 27.2738C114.719 29.179 112.909 31.1477 111.004 33.1799C113.1 38.9591 116.212 44.8335 120.34 50.8032C124.531 56.7093 129.612 62.2345 135.581 67.3785C138.82 64.4572 141.424 61.2501 143.393 57.7572C145.362 54.2643 146.346 50.6127 146.346 46.8022C146.346 45.5321 146.155 44.2619 145.774 42.9918C145.457 41.6582 144.79 40.261 143.774 38.8003C143.774 38.6733 143.964 38.5463 144.345 38.4193C144.726 38.2288 145.076 38.1335 145.393 38.1335C146.282 38.1335 146.981 38.451 147.489 39.0861C148.061 39.6577 148.473 40.3563 148.727 41.1818C149.045 42.0074 149.235 42.8648 149.299 43.7539C149.426 44.5795 149.49 45.2463 149.49 45.7544C149.49 49.9458 148.315 54.0103 145.965 57.9477C143.679 61.8217 140.694 65.3781 137.01 68.6169C143.171 73.888 150.125 78.1747 157.872 81.4771C158.317 81.7311 158.539 81.9534 158.539 82.1439Z" fill="#FFA55C"/>
<path d="M22.24 48.1278C22.24 46.1438 22.112 44.4958 21.856 43.1838C21.632 41.8718 21.312 41.2158 20.896 41.2158C20.64 41.2158 20.4 41.4078 20.176 41.7918C19.952 42.1438 19.76 42.6558 19.6 43.3278C19.472 43.9678 19.36 44.7358 19.264 45.6318C19.2 46.4958 19.168 47.4398 19.168 48.4638C19.168 50.2878 19.296 52.2558 19.552 54.3678C19.808 56.4478 20.256 58.4638 20.896 60.4158C21.344 58.3678 21.68 56.2718 21.904 54.1278C22.128 51.9518 22.24 49.9518 22.24 48.1278ZM42.352 26.3358C42.352 26.4958 42.288 26.6238 42.16 26.7198C42.032 26.8158 41.872 26.9278 41.68 27.0558C40.72 27.6318 39.936 28.4318 39.328 29.4558C38.72 30.4798 38.224 31.5998 37.84 32.8158C37.488 34.0318 37.248 35.2798 37.12 36.5598C36.992 37.8078 36.928 38.9598 36.928 40.0158C36.928 40.7518 36.96 41.6638 37.024 42.7518C37.12 43.8078 37.216 44.9758 37.312 46.2558C37.44 47.5358 37.536 48.8958 37.6 50.3358C37.696 51.7438 37.744 53.1838 37.744 54.6558C37.744 56.7358 37.616 58.7518 37.36 60.7038C37.136 62.6558 36.672 64.3998 35.968 65.9358C35.296 67.4718 34.352 68.7038 33.136 69.6318C31.92 70.5598 30.336 71.0238 28.384 71.0238C27.488 71.0238 26.64 70.8478 25.84 70.4958C25.072 70.1758 24.352 69.7118 23.68 69.1038C23.04 68.4958 22.448 67.7918 21.904 66.9918C21.392 66.1918 20.928 65.3118 20.512 64.3518C20.096 65.4718 19.6 66.5118 19.024 67.4718C18.48 68.4318 17.872 69.2638 17.2 69.9678C16.528 70.6718 15.792 71.2158 14.992 71.5998C14.192 71.9838 13.344 72.1758 12.448 72.1758C11.072 72.1758 9.90399 71.8238 8.94399 71.1198C8.01599 70.4158 7.24799 69.4878 6.63999 68.3358C6.03199 67.2158 5.55199 65.9358 5.19999 64.4958C4.87999 63.0238 4.63999 61.5358 4.47999 60.0318C4.31999 58.4958 4.20799 57.0078 4.14399 55.5678C4.11199 54.0958 4.07999 52.7998 4.04799 51.6798C3.98399 49.6638 4.01599 47.7598 4.14399 45.9678C4.30399 44.1438 4.47999 42.5118 4.67199 41.0718C4.86399 39.5998 5.05599 38.3358 5.24799 37.2798C5.43999 36.2238 5.56799 35.4398 5.63199 34.9278C5.66399 34.7358 5.85599 34.6078 6.20799 34.5438C6.59199 34.4798 6.92799 34.4478 7.21599 34.4478C7.43999 34.4478 7.63199 34.4798 7.79199 34.5438C7.95199 34.5758 8.03199 34.6718 8.03199 34.8318C8.03199 35.0238 7.95199 35.3598 7.79199 35.8398C7.63199 36.2878 7.39199 37.1518 7.07199 38.4318C6.94399 39.0078 6.79999 39.8398 6.63999 40.9278C6.51199 41.9838 6.38399 43.1838 6.25599 44.5278C6.15999 45.8718 6.07999 47.3118 6.01599 48.8478C5.95199 50.3518 5.91999 51.8238 5.91999 53.2638C5.91999 54.3838 5.96799 55.6158 6.06399 56.9598C6.15999 58.2718 6.31999 59.5838 6.54399 60.8958C6.76799 62.1758 7.07199 63.4238 7.45599 64.6398C7.83999 65.8558 8.30399 66.9278 8.84799 67.8558C9.42399 68.7838 10.096 69.5198 10.864 70.0638C11.632 70.6398 12.528 70.9278 13.552 70.9278C14.32 70.9278 15.024 70.7358 15.664 70.3518C16.304 69.9678 16.896 69.4238 17.44 68.7198C17.984 68.0478 18.464 67.2478 18.88 66.3198C19.328 65.3918 19.728 64.3838 20.08 63.2958C19.344 61.2798 18.8 59.1358 18.448 56.8638C18.096 54.5918 17.92 52.4958 17.92 50.5758C17.92 49.1678 17.968 47.7758 18.064 46.3998C18.192 45.0238 18.368 43.7918 18.592 42.7038C18.816 41.6158 19.104 40.7358 19.456 40.0638C19.808 39.3918 20.224 39.0558 20.704 39.0558C21.088 39.0558 21.424 39.2958 21.712 39.7758C22.032 40.2558 22.288 40.9118 22.48 41.7438C22.704 42.5758 22.864 43.5678 22.96 44.7198C23.088 45.8398 23.152 47.0558 23.152 48.3678C23.152 50.4798 23.008 52.7038 22.72 55.0398C22.432 57.3438 21.984 59.5998 21.376 61.8078C21.792 62.9278 22.272 63.9678 22.816 64.9278C23.36 65.8558 23.968 66.6718 24.64 67.3758C25.344 68.0798 26.112 68.6238 26.944 69.0078C27.808 69.4238 28.752 69.6318 29.776 69.6318C31.184 69.6318 32.336 69.2798 33.232 68.5758C34.128 67.9038 34.832 66.9758 35.344 65.7918C35.856 64.5758 36.208 63.1838 36.4 61.6158C36.592 60.0158 36.688 58.3038 36.688 56.4798C36.688 54.8478 36.624 53.1678 36.496 51.4398C36.4 49.7118 36.288 47.9998 36.16 46.3038C36.032 44.5758 35.904 42.9118 35.776 41.3118C35.68 39.6798 35.632 38.1758 35.632 36.7998C35.632 35.8078 35.776 34.6558 36.064 33.3438C36.384 32.0318 36.8 30.7998 37.312 29.6478C37.856 28.4638 38.464 27.4718 39.136 26.6718C39.84 25.8398 40.576 25.4238 41.344 25.4238C41.568 25.4238 41.792 25.5358 42.016 25.7598C42.24 25.9518 42.352 26.1438 42.352 26.3358Z" fill="#FFF9F4"/>
<path d="M57.3396 58.2078C57.3396 57.7278 57.2596 57.3438 57.0996 57.0558C56.9396 56.7358 56.6836 56.5758 56.3316 56.5758C55.7876 56.5758 55.3716 56.8478 55.0836 57.3918C54.7956 57.9038 54.6676 58.5598 54.6996 59.3598C54.7956 61.0558 55.0996 62.4798 55.6116 63.6318C56.1556 62.8958 56.5716 62.0638 56.8596 61.1358C57.1796 60.2078 57.3396 59.2318 57.3396 58.2078ZM70.2996 58.1598C70.0756 58.6398 69.8356 59.1358 69.5796 59.6478C69.3236 60.1278 69.0356 60.6078 68.7156 61.0878C67.0836 63.5198 65.4356 65.3278 63.7716 66.5118C62.1076 67.6958 60.5556 68.2878 59.1156 68.2878C57.2916 68.2878 55.8996 67.4238 54.9396 65.6958C53.8196 66.8158 52.5556 67.6638 51.1476 68.2398C49.7716 68.8158 48.4116 69.1038 47.0676 69.1038C46.2676 69.1038 45.4996 68.9918 44.7636 68.7678C44.0596 68.5438 43.4516 68.2078 42.9396 67.7598C42.3956 67.2798 41.9636 66.6878 41.6436 65.9838C41.3236 65.2478 41.1636 64.3998 41.1636 63.4398C41.1636 62.2878 41.4356 61.1198 41.9796 59.9358C42.4916 58.7198 43.2116 57.6318 44.1396 56.6718C45.0996 55.6798 46.2196 54.8638 47.4996 54.2238C48.7796 53.5838 50.1716 53.2638 51.6756 53.2638C52.8916 53.2638 53.8356 53.4398 54.5076 53.7918C55.1796 54.1118 55.5156 54.4158 55.5156 54.7038C55.5156 54.8318 55.4516 54.9278 55.3236 54.9918C55.1956 55.0558 55.0836 55.0878 54.9876 55.0878C54.9556 55.0558 54.9236 55.0398 54.8916 55.0398H54.8436C54.4596 54.6878 54.0276 54.4158 53.5476 54.2238C53.0676 53.9998 52.3636 53.8878 51.4356 53.8878C50.1876 53.8878 49.0516 54.1598 48.0276 54.7038C47.0356 55.2158 46.1876 55.9038 45.4836 56.7678C44.7796 57.5998 44.2356 58.5278 43.8516 59.5518C43.4676 60.5758 43.2756 61.5838 43.2756 62.5758C43.2756 64.4958 43.7236 65.8878 44.6196 66.7518C45.5156 67.6158 46.6356 68.0478 47.9796 68.0478C49.0676 68.0478 50.2036 67.7758 51.3876 67.2318C52.5716 66.6878 53.6276 65.9198 54.5556 64.9278C54.0436 63.7758 53.7876 62.2718 53.7876 60.4158C53.7876 59.1998 54.0116 58.1438 54.4596 57.2478C54.9076 56.3518 55.5476 55.9038 56.3796 55.9038C57.5316 55.9038 58.1076 56.5758 58.1076 57.9198C58.1076 59.2638 57.9156 60.4798 57.5316 61.5678C57.1476 62.6238 56.6356 63.5838 55.9956 64.4478C56.8916 66.1118 58.1396 66.9438 59.7396 66.9438C60.9556 66.9438 62.2516 66.4318 63.6276 65.4078C65.0356 64.3838 66.4116 62.8958 67.7556 60.9438C68.0756 60.4638 68.3636 59.9678 68.6196 59.4558C68.8756 58.9438 69.1316 58.4318 69.3876 57.9198L70.2996 58.1598Z" fill="#FFF9F4"/>
<path d="M76.9667 36.7038C76.9667 34.8798 76.6627 33.4238 76.0547 32.3358C75.4787 31.2158 74.5027 30.6558 73.1267 30.6558C72.6467 30.6558 72.1987 30.8158 71.7827 31.1358C71.3987 31.4238 71.0627 31.8238 70.7747 32.3358C70.4867 32.8478 70.2627 33.4398 70.1027 34.1118C69.9427 34.7838 69.8627 35.5038 69.8627 36.2718C69.8627 38.3838 69.8787 40.3038 69.9107 42.0318C69.9427 43.7598 69.9747 45.3918 70.0067 46.9278C70.0707 48.4638 70.1347 49.9518 70.1987 51.3918C70.2627 52.8318 70.3267 54.3038 70.3907 55.8078C71.3187 54.5598 72.1827 53.1358 72.9827 51.5358C73.7827 49.9038 74.4707 48.2398 75.0467 46.5438C75.6547 44.8158 76.1187 43.1038 76.4387 41.4078C76.7907 39.7118 76.9667 38.1438 76.9667 36.7038ZM94.3427 58.1598C94.1187 58.6398 93.8787 59.1358 93.6227 59.6478C93.3987 60.1598 93.1107 60.6398 92.7587 61.0878C90.9987 63.5838 88.9987 65.5518 86.7587 66.9918C84.5187 68.3998 82.2947 69.1038 80.0867 69.1038C78.7107 69.1038 77.3987 68.7838 76.1507 68.1438C74.9027 67.5358 73.7987 66.5438 72.8387 65.1678C72.7107 65.0078 72.6467 64.8638 72.6467 64.7358C72.6467 64.4478 72.8387 64.3038 73.2227 64.3038C73.2547 64.3038 73.3667 64.3358 73.5587 64.3998C73.8147 64.3998 74.1027 64.4958 74.4227 64.6878C74.7747 64.8478 75.2707 64.9278 75.9107 64.9278C76.9027 64.9278 77.8307 64.7518 78.6947 64.3998C79.5587 64.0478 80.2947 63.5998 80.9027 63.0558C81.5427 62.4798 82.0387 61.8398 82.3907 61.1358C82.7427 60.3998 82.9187 59.6478 82.9187 58.8798C82.9187 57.9198 82.6627 57.0878 82.1507 56.3838C81.6707 55.6798 80.8387 55.3278 79.6547 55.3278C78.4387 55.3278 77.3187 55.7598 76.2947 56.6238C75.2707 57.4558 74.3427 58.4798 73.5107 59.6958C72.7107 60.8798 72.0227 62.1438 71.4467 63.4878C70.8707 64.7998 70.4387 65.9518 70.1507 66.9438C69.9907 67.4878 69.8467 67.8238 69.7187 67.9518C69.5907 68.0798 69.4467 68.1438 69.2867 68.1438C68.9347 68.1438 68.7747 67.8078 68.8067 67.1358C68.8067 66.8478 68.8227 66.4958 68.8547 66.0798C68.8867 65.6638 68.9187 65.2158 68.9507 64.7358C68.9507 64.2558 68.9667 63.7758 68.9987 63.2958C69.0307 62.7838 69.0467 62.3198 69.0467 61.9038C69.0467 60.4638 69.0147 58.8158 68.9507 56.9598C68.8867 55.0718 68.8067 53.1358 68.7107 51.1518C68.6147 49.1358 68.5347 47.1358 68.4707 45.1518C68.4067 43.1678 68.3747 41.3438 68.3747 39.6798C68.3747 38.3678 68.4707 37.1038 68.6627 35.8878C68.8547 34.6398 69.1587 33.5518 69.5747 32.6238C69.9907 31.6638 70.5187 30.9118 71.1587 30.3678C71.7987 29.7918 72.5507 29.5038 73.4147 29.5038C74.3107 29.5038 75.0627 29.6638 75.6707 29.9838C76.3107 30.2718 76.8227 30.7038 77.2067 31.2798C77.5907 31.8238 77.8627 32.4958 78.0227 33.2958C78.2147 34.0638 78.3107 34.9118 78.3107 35.8398C78.3107 37.4398 78.0867 39.1998 77.6387 41.1198C77.1907 43.0078 76.5987 44.9118 75.8627 46.8318C75.1267 48.7518 74.2787 50.6078 73.3187 52.3998C72.3907 54.1598 71.4307 55.6958 70.4387 57.0078C70.5027 57.9678 70.5347 58.9598 70.5347 59.9838C70.5667 61.0078 70.6147 62.0958 70.6787 63.2478C71.4787 61.5198 72.3587 60.0318 73.3187 58.7838C73.7347 58.2398 74.1987 57.7118 74.7107 57.1998C75.2547 56.6558 75.8147 56.1758 76.3907 55.7598C76.9987 55.3438 77.6387 55.0078 78.3107 54.7518C79.0147 54.4958 79.7507 54.3678 80.5187 54.3678C81.7347 54.3678 82.7907 54.6718 83.6867 55.2798C84.5827 55.8878 85.0307 56.8638 85.0307 58.2078C85.0307 59.4878 84.7107 60.5758 84.0707 61.4718C83.4627 62.3678 82.6947 63.1198 81.7667 63.7278C80.8387 64.3038 79.8467 64.7358 78.7907 65.0238C77.7347 65.3118 76.7747 65.4878 75.9107 65.5518C75.8467 65.5518 75.8147 65.5678 75.8147 65.5998C75.8147 65.6638 75.8627 65.7598 75.9587 65.8878C76.5987 66.6238 77.3187 67.1518 78.1187 67.4718C78.9187 67.7918 79.7507 67.9518 80.6147 67.9518C81.6707 67.9518 82.7427 67.7598 83.8307 67.3758C84.9187 66.9598 85.9587 66.4318 86.9507 65.7918C87.9427 65.1198 88.8547 64.3678 89.6867 63.5358C90.5507 62.6718 91.2547 61.8078 91.7987 60.9438C92.1187 60.4638 92.4067 59.9678 92.6627 59.4558C92.9187 58.9438 93.1747 58.4318 93.4307 57.9198L94.3427 58.1598Z" fill="#FFF9F4"/>
<path d="M101.11 55.1838C101.11 54.3198 100.886 53.6158 100.438 53.0718C100.022 52.4958 99.3336 52.2078 98.3736 52.2078C97.8616 52.2078 97.3976 52.3678 96.9816 52.6878C96.5656 53.0078 96.2136 53.4398 95.9256 53.9838C95.6376 54.4958 95.4136 55.1038 95.2536 55.8078C95.0936 56.5118 95.0136 57.2478 95.0136 58.0158C95.0136 59.2318 95.1416 60.3198 95.3976 61.2798C95.6856 62.2078 96.0856 63.0238 96.5976 63.7278C97.2696 63.1838 97.8776 62.5598 98.4216 61.8558C98.9656 61.1518 99.4296 60.4158 99.8136 59.6478C100.23 58.8798 100.55 58.1118 100.774 57.3438C100.998 56.5758 101.11 55.8558 101.11 55.1838ZM113.254 58.1598C113.03 58.6398 112.79 59.1358 112.534 59.6478C112.31 60.1278 112.022 60.6078 111.67 61.0878C110.102 63.3278 108.31 65.0238 106.294 66.1758C104.31 67.2958 102.406 67.8558 100.582 67.8558C99.5576 67.8558 98.5976 67.6798 97.7016 67.3278C96.8376 66.9758 96.0856 66.4478 95.4456 65.7438C94.8056 65.0398 94.2936 64.1598 93.9096 63.1038C93.5256 62.0478 93.3336 60.7998 93.3336 59.3598C93.3336 58.3998 93.4776 57.4398 93.7656 56.4798C94.0536 55.5198 94.4376 54.6558 94.9176 53.8878C95.4296 53.1198 96.0056 52.4958 96.6456 52.0158C97.3176 51.5358 98.0216 51.2958 98.7576 51.2958C99.9416 51.2958 100.806 51.6478 101.35 52.3518C101.894 53.0238 102.166 53.8878 102.166 54.9438C102.166 56.3838 101.718 57.9518 100.822 59.6478C99.9576 61.3118 98.7096 62.8638 97.0776 64.3038C98.2936 65.6798 99.8616 66.3678 101.782 66.3678C103.222 66.3678 104.726 65.9358 106.294 65.0718C107.862 64.1758 109.334 62.7998 110.71 60.9438C111.062 60.4958 111.35 60.0158 111.574 59.5038C111.83 58.9598 112.086 58.4318 112.342 57.9198L113.254 58.1598Z" fill="#FFF9F4"/>
<path d="M154.839 46.0638C153.655 46.0638 152.519 46.1918 151.431 46.4478C150.375 46.7038 149.431 47.0078 148.599 47.3598C147.799 47.7118 147.143 48.0798 146.631 48.4638C146.151 48.8478 145.911 49.1838 145.911 49.4718C145.911 49.8558 146.359 50.0478 147.255 50.0478C148.791 50.0478 150.247 49.6798 151.623 48.9438C153.031 48.2078 154.295 47.2478 155.415 46.0638H154.839ZM168.807 53.2638C168.807 54.8318 168.359 56.5278 167.463 58.3518C166.599 60.1758 165.399 61.9838 163.863 63.7758C162.327 65.5678 160.503 67.2958 158.391 68.9598C156.279 70.6238 154.007 72.0958 151.575 73.3758C149.143 74.6558 146.583 75.6638 143.895 76.3998C141.207 77.1678 138.519 77.5518 135.831 77.5518C135.383 77.5518 134.887 77.5358 134.343 77.5038C133.831 77.4718 133.351 77.3918 132.903 77.2638C132.455 77.1678 132.071 76.9918 131.751 76.7358C131.431 76.5118 131.271 76.1918 131.271 75.7758C131.271 75.1998 131.559 74.6398 132.135 74.0958C132.711 73.5838 133.447 73.1038 134.343 72.6558C135.239 72.2078 136.215 71.8078 137.271 71.4558C138.327 71.1038 139.335 70.7998 140.295 70.5438C141.287 70.2878 142.151 70.0798 142.887 69.9198C143.623 69.7918 144.119 69.7278 144.375 69.7278C144.567 69.7278 144.711 69.7758 144.807 69.8718C144.903 69.9678 144.951 70.0638 144.951 70.1598C144.951 70.3198 144.871 70.3998 144.711 70.3998H144.087C143.255 70.3998 142.199 70.5598 140.919 70.8798C139.639 71.1998 138.391 71.5998 137.175 72.0798C135.959 72.5598 134.919 73.0878 134.055 73.6638C133.191 74.2718 132.759 74.8318 132.759 75.3438C132.759 75.6958 132.871 75.9678 133.095 76.1598C133.351 76.3838 133.655 76.5598 134.007 76.6878C134.359 76.8158 134.727 76.8958 135.111 76.9278C135.495 76.9918 135.831 77.0238 136.119 77.0238C138.391 77.0238 140.711 76.6398 143.079 75.8718C145.479 75.1038 147.799 74.0798 150.039 72.7998C152.311 71.5518 154.439 70.0958 156.423 68.4318C158.439 66.7998 160.199 65.1038 161.703 63.3438C163.207 61.5518 164.391 59.7758 165.255 58.0158C166.119 56.2238 166.551 54.5598 166.551 53.0238C166.551 51.1358 165.767 49.5678 164.199 48.3198C162.663 47.0398 160.119 46.3038 156.567 46.1118C155.127 47.4558 153.543 48.5438 151.815 49.3758C150.119 50.2078 148.391 50.6238 146.631 50.6238C145.383 50.6238 144.759 50.3198 144.759 49.7118C144.759 49.3278 145.015 48.8958 145.527 48.4158C146.071 47.9038 146.807 47.4238 147.735 46.9758C148.695 46.5278 149.831 46.1598 151.143 45.8718C152.455 45.5518 153.895 45.3918 155.463 45.3918H156.039C157.095 44.1438 157.943 42.7838 158.583 41.3118C159.223 39.8078 159.543 38.3358 159.543 36.8958C159.543 35.9358 159.367 35.0238 159.015 34.1598C158.695 33.2638 158.151 32.4958 157.383 31.8558C156.647 31.2158 155.671 30.7038 154.455 30.3198C153.271 29.9358 151.831 29.7438 150.135 29.7438C148.983 29.7438 147.383 29.9038 145.335 30.2238C143.319 30.5438 141.127 31.0398 138.759 31.7118C136.423 32.3518 134.039 33.1678 131.607 34.1598C129.175 35.1518 126.967 36.3038 124.983 37.6158C122.999 38.9278 121.383 40.4158 120.135 42.0798C118.887 43.7438 118.263 45.5838 118.263 47.5998C118.263 47.8558 118.215 48.0798 118.119 48.2718C118.023 48.4318 117.927 48.5118 117.831 48.5118C117.703 48.5118 117.607 48.3838 117.543 48.1278C117.447 47.8398 117.399 47.3758 117.399 46.7358C117.687 44.6558 118.535 42.7678 119.943 41.0718C121.351 39.3758 123.095 37.8718 125.175 36.5598C127.223 35.2158 129.479 34.0638 131.943 33.1038C134.407 32.1438 136.839 31.3598 139.239 30.7518C141.671 30.1118 143.927 29.6478 146.007 29.3598C148.119 29.0398 149.847 28.8798 151.191 28.8798C153.143 28.8798 154.791 29.0718 156.135 29.4558C157.511 29.8078 158.631 30.3038 159.495 30.9438C160.359 31.5518 160.983 32.2878 161.367 33.1518C161.751 34.0158 161.943 34.9278 161.943 35.8878C161.943 37.4558 161.511 39.0878 160.647 40.7838C159.815 42.4478 158.679 43.9998 157.239 45.4398C159.287 45.5358 161.047 45.8078 162.519 46.2558C163.991 46.6718 165.191 47.2318 166.119 47.9358C167.047 48.6078 167.719 49.4078 168.135 50.3358C168.583 51.2318 168.807 52.2078 168.807 53.2638ZM143.367 65.8878C143.367 66.3358 143.335 66.6558 143.271 66.8478C143.207 67.0398 143.031 67.1358 142.743 67.1358C142.103 67.1998 141.783 66.5598 141.783 65.2158C141.751 60.7998 141.703 56.7678 141.639 53.1198C141.607 49.4718 141.559 46.3198 141.495 43.6638C141.463 40.9758 141.431 38.8478 141.399 37.2798C141.367 35.7118 141.351 34.8158 141.351 34.5918C141.351 34.3358 141.431 34.1598 141.591 34.0638C141.751 33.9678 141.943 33.8878 142.167 33.8238C142.423 33.8238 142.615 33.9038 142.743 34.0638C142.903 34.2238 142.983 34.4158 142.983 34.6398C142.983 37.1998 142.999 39.8398 143.031 42.5598C143.063 45.2478 143.095 47.9358 143.127 50.6238C143.191 53.3118 143.239 55.9518 143.271 58.5438C143.335 61.1358 143.367 63.5838 143.367 65.8878Z" fill="#FFF9F4"/>
<path d="M187.465 58.2078C187.465 57.7278 187.385 57.3438 187.225 57.0558C187.065 56.7358 186.809 56.5758 186.457 56.5758C185.913 56.5758 185.497 56.8478 185.209 57.3918C184.921 57.9038 184.793 58.5598 184.825 59.3598C184.921 61.0558 185.225 62.4798 185.737 63.6318C186.281 62.8958 186.697 62.0638 186.985 61.1358C187.305 60.2078 187.465 59.2318 187.465 58.2078ZM200.425 58.1598C200.201 58.6398 199.961 59.1358 199.705 59.6478C199.449 60.1278 199.161 60.6078 198.841 61.0878C197.209 63.5198 195.561 65.3278 193.897 66.5118C192.233 67.6958 190.681 68.2878 189.241 68.2878C187.417 68.2878 186.025 67.4238 185.065 65.6958C183.945 66.8158 182.681 67.6638 181.273 68.2398C179.897 68.8158 178.537 69.1038 177.193 69.1038C176.393 69.1038 175.625 68.9918 174.889 68.7678C174.185 68.5438 173.577 68.2078 173.065 67.7598C172.521 67.2798 172.089 66.6878 171.769 65.9838C171.449 65.2478 171.289 64.3998 171.289 63.4398C171.289 62.2878 171.561 61.1198 172.105 59.9358C172.617 58.7198 173.337 57.6318 174.265 56.6718C175.225 55.6798 176.345 54.8638 177.625 54.2238C178.905 53.5838 180.297 53.2638 181.801 53.2638C183.017 53.2638 183.961 53.4398 184.633 53.7918C185.305 54.1118 185.641 54.4158 185.641 54.7038C185.641 54.8318 185.577 54.9278 185.449 54.9918C185.321 55.0558 185.209 55.0878 185.113 55.0878C185.081 55.0558 185.049 55.0398 185.017 55.0398H184.969C184.585 54.6878 184.153 54.4158 183.673 54.2238C183.193 53.9998 182.489 53.8878 181.561 53.8878C180.313 53.8878 179.177 54.1598 178.153 54.7038C177.161 55.2158 176.313 55.9038 175.609 56.7678C174.905 57.5998 174.361 58.5278 173.977 59.5518C173.593 60.5758 173.401 61.5838 173.401 62.5758C173.401 64.4958 173.849 65.8878 174.745 66.7518C175.641 67.6158 176.761 68.0478 178.105 68.0478C179.193 68.0478 180.329 67.7758 181.513 67.2318C182.697 66.6878 183.753 65.9198 184.681 64.9278C184.169 63.7758 183.913 62.2718 183.913 60.4158C183.913 59.1998 184.137 58.1438 184.585 57.2478C185.033 56.3518 185.673 55.9038 186.505 55.9038C187.657 55.9038 188.233 56.5758 188.233 57.9198C188.233 59.2638 188.041 60.4798 187.657 61.5678C187.273 62.6238 186.761 63.5838 186.121 64.4478C187.017 66.1118 188.265 66.9438 189.865 66.9438C191.081 66.9438 192.377 66.4318 193.753 65.4078C195.161 64.3838 196.537 62.8958 197.881 60.9438C198.201 60.4638 198.489 59.9678 198.745 59.4558C199.001 58.9438 199.257 58.4318 199.513 57.9198L200.425 58.1598Z" fill="#FFF9F4"/>
<path d="M207.092 36.7038C207.092 34.8798 206.788 33.4238 206.18 32.3358C205.604 31.2158 204.628 30.6558 203.252 30.6558C202.772 30.6558 202.324 30.8158 201.908 31.1358C201.524 31.4238 201.188 31.8238 200.9 32.3358C200.612 32.8478 200.388 33.4398 200.228 34.1118C200.068 34.7838 199.988 35.5038 199.988 36.2718C199.988 38.3838 200.004 40.3038 200.036 42.0318C200.068 43.7598 200.1 45.3918 200.132 46.9278C200.196 48.4638 200.26 49.9518 200.324 51.3918C200.388 52.8318 200.452 54.3038 200.516 55.8078C201.444 54.5598 202.308 53.1358 203.108 51.5358C203.908 49.9038 204.596 48.2398 205.172 46.5438C205.78 44.8158 206.244 43.1038 206.564 41.4078C206.916 39.7118 207.092 38.1438 207.092 36.7038ZM224.468 58.1598C224.244 58.6398 224.004 59.1358 223.748 59.6478C223.524 60.1598 223.236 60.6398 222.884 61.0878C221.124 63.5838 219.124 65.5518 216.884 66.9918C214.644 68.3998 212.42 69.1038 210.212 69.1038C208.836 69.1038 207.524 68.7838 206.276 68.1438C205.028 67.5358 203.924 66.5438 202.964 65.1678C202.836 65.0078 202.772 64.8638 202.772 64.7358C202.772 64.4478 202.964 64.3038 203.348 64.3038C203.38 64.3038 203.492 64.3358 203.684 64.3998C203.94 64.3998 204.228 64.4958 204.548 64.6878C204.9 64.8478 205.396 64.9278 206.036 64.9278C207.028 64.9278 207.956 64.7518 208.82 64.3998C209.684 64.0478 210.42 63.5998 211.028 63.0558C211.668 62.4798 212.164 61.8398 212.516 61.1358C212.868 60.3998 213.044 59.6478 213.044 58.8798C213.044 57.9198 212.788 57.0878 212.276 56.3838C211.796 55.6798 210.964 55.3278 209.78 55.3278C208.564 55.3278 207.444 55.7598 206.42 56.6238C205.396 57.4558 204.468 58.4798 203.636 59.6958C202.836 60.8798 202.148 62.1438 201.572 63.4878C200.996 64.7998 200.564 65.9518 200.276 66.9438C200.116 67.4878 199.972 67.8238 199.844 67.9518C199.716 68.0798 199.572 68.1438 199.412 68.1438C199.06 68.1438 198.9 67.8078 198.932 67.1358C198.932 66.8478 198.948 66.4958 198.98 66.0798C199.012 65.6638 199.044 65.2158 199.076 64.7358C199.076 64.2558 199.092 63.7758 199.124 63.2958C199.156 62.7838 199.172 62.3198 199.172 61.9038C199.172 60.4638 199.14 58.8158 199.076 56.9598C199.012 55.0718 198.932 53.1358 198.836 51.1518C198.74 49.1358 198.66 47.1358 198.596 45.1518C198.532 43.1678 198.5 41.3438 198.5 39.6798C198.5 38.3678 198.596 37.1038 198.788 35.8878C198.98 34.6398 199.284 33.5518 199.7 32.6238C200.116 31.6638 200.644 30.9118 201.284 30.3678C201.924 29.7918 202.676 29.5038 203.54 29.5038C204.436 29.5038 205.188 29.6638 205.796 29.9838C206.436 30.2718 206.948 30.7038 207.332 31.2798C207.716 31.8238 207.988 32.4958 208.148 33.2958C208.34 34.0638 208.436 34.9118 208.436 35.8398C208.436 37.4398 208.212 39.1998 207.764 41.1198C207.316 43.0078 206.724 44.9118 205.988 46.8318C205.252 48.7518 204.404 50.6078 203.444 52.3998C202.516 54.1598 201.556 55.6958 200.564 57.0078C200.628 57.9678 200.66 58.9598 200.66 59.9838C200.692 61.0078 200.74 62.0958 200.804 63.2478C201.604 61.5198 202.484 60.0318 203.444 58.7838C203.86 58.2398 204.324 57.7118 204.836 57.1998C205.38 56.6558 205.94 56.1758 206.516 55.7598C207.124 55.3438 207.764 55.0078 208.436 54.7518C209.14 54.4958 209.876 54.3678 210.644 54.3678C211.86 54.3678 212.916 54.6718 213.812 55.2798C214.708 55.8878 215.156 56.8638 215.156 58.2078C215.156 59.4878 214.836 60.5758 214.196 61.4718C213.588 62.3678 212.82 63.1198 211.892 63.7278C210.964 64.3038 209.972 64.7358 208.916 65.0238C207.86 65.3118 206.9 65.4878 206.036 65.5518C205.972 65.5518 205.94 65.5678 205.94 65.5998C205.94 65.6638 205.988 65.7598 206.084 65.8878C206.724 66.6238 207.444 67.1518 208.244 67.4718C209.044 67.7918 209.876 67.9518 210.74 67.9518C211.796 67.9518 212.868 67.7598 213.956 67.3758C215.044 66.9598 216.084 66.4318 217.076 65.7918C218.068 65.1198 218.98 64.3678 219.812 63.5358C220.676 62.6718 221.38 61.8078 221.924 60.9438C222.244 60.4638 222.532 59.9678 222.788 59.4558C223.044 58.9438 223.3 58.4318 223.556 57.9198L224.468 58.1598Z" fill="#FFF9F4"/>
<path d="M231.235 55.1838C231.235 54.3198 231.011 53.6158 230.563 53.0718C230.147 52.4958 229.459 52.2078 228.499 52.2078C227.987 52.2078 227.523 52.3678 227.107 52.6878C226.691 53.0078 226.339 53.4398 226.051 53.9838C225.763 54.4958 225.539 55.1038 225.379 55.8078C225.219 56.5118 225.139 57.2478 225.139 58.0158C225.139 59.2318 225.267 60.3198 225.523 61.2798C225.811 62.2078 226.211 63.0238 226.723 63.7278C227.395 63.1838 228.003 62.5598 228.547 61.8558C229.091 61.1518 229.555 60.4158 229.939 59.6478C230.355 58.8798 230.675 58.1118 230.899 57.3438C231.123 56.5758 231.235 55.8558 231.235 55.1838ZM243.379 58.1598C243.155 58.6398 242.915 59.1358 242.659 59.6478C242.435 60.1278 242.147 60.6078 241.795 61.0878C240.227 63.3278 238.435 65.0238 236.419 66.1758C234.435 67.2958 232.531 67.8558 230.707 67.8558C229.683 67.8558 228.723 67.6798 227.827 67.3278C226.963 66.9758 226.211 66.4478 225.571 65.7438C224.931 65.0398 224.419 64.1598 224.035 63.1038C223.651 62.0478 223.459 60.7998 223.459 59.3598C223.459 58.3998 223.603 57.4398 223.891 56.4798C224.179 55.5198 224.563 54.6558 225.043 53.8878C225.555 53.1198 226.131 52.4958 226.771 52.0158C227.443 51.5358 228.147 51.2958 228.883 51.2958C230.067 51.2958 230.931 51.6478 231.475 52.3518C232.019 53.0238 232.291 53.8878 232.291 54.9438C232.291 56.3838 231.843 57.9518 230.947 59.6478C230.083 61.3118 228.835 62.8638 227.203 64.3038C228.419 65.6798 229.987 66.3678 231.907 66.3678C233.347 66.3678 234.851 65.9358 236.419 65.0718C237.987 64.1758 239.459 62.7998 240.835 60.9438C241.187 60.4958 241.475 60.0158 241.699 59.5038C241.955 58.9598 242.211 58.4318 242.467 57.9198L243.379 58.1598Z" fill="#FFF9F4"/>
</g>
<defs>
<filter id="filter0_d_25_368" x="-1" y="0" width="249" height="91.001" filterUnits="userSpaceOnUse" color-interpolation-filters="sRGB">
<feFlood flood-opacity="0" result="BackgroundImageFix"/>
<feColorMatrix in="SourceAlpha" type="matrix" values="0 0 0 0 0 0 0 0 0 0 0 0 0 0 0 0 0 0 127 0" result="hardAlpha"/>
<feOffset dy="4"/>
<feGaussianBlur stdDeviation="2"/>
<feComposite in2="hardAlpha" operator="out"/>
<feColorMatrix type="matrix" values="0 0 0 0 0 0 0 0 0 0 0 0 0 0 0 0 0 0 0.25 0"/>
<feBlend mode="normal" in2="BackgroundImageFix" result="effect1_dropShadow_25_368"/>
<feBlend mode="normal" in="SourceGraphic" in2="effect1_dropShadow_25_368" result="shape"/>
</filter>
</defs>
</svg>
